<svg width="79" height="79" viewBox="0 0 79 79" fill="none" xmlns="http://www.w3.org/2000/svg">
<path id="Vector" fill-rule="evenodd" clip-rule="evenodd" d="M39.5 0C17.6847 0 0 17.6847 0 39.5C0 61.3151 17.6847 79 39.5 79C61.3151 79 79 61.3151 79 39.5C79 17.6847 61.3151 0 39.5 0ZM36.4482 25.9477L28.4888 32.2861C25.1495 34.9453 23.4797 36.2752 23.8057 37.7596L23.823 37.8331C24.1943 39.3084 26.3108 39.8756 30.5437 41.0101C32.896 41.6401 34.0723 41.9553 34.6241 42.8468L34.6522 42.8938C35.1846 43.796 34.8817 44.9261 34.2761 47.1863L34.1177 47.7768C32.4386 54.0431 31.5992 57.1759 33.2159 58.1878C34.8327 59.1994 37.4053 57.151 42.5506 53.054L50.5098 46.7155C53.8492 44.0563 55.5188 42.7268 55.193 41.242L55.176 41.1685C54.8043 39.6932 52.6879 39.1259 48.455 37.9919C46.1028 37.3615 44.9265 37.0463 44.3747 36.1547L44.3467 36.1077C43.8142 35.2056 44.1172 34.0755 44.7227 31.8157L44.8811 31.2247C46.5598 24.9586 47.3996 21.8256 45.7825 20.8138C44.1657 19.802 41.5931 21.8506 36.4482 25.9477Z" fill="#696969"/>
</svg>
